<svg enable-background="new 0 0 520 56" viewBox="0 0 520 56" xmlns="http://www.w3.org/2000/svg"><path d="m429.5 11.7c-4.5 0-7.8 1.6-9.4 4.5l-.9 1.6v-5.3h-7.4v32.4h7.8v-19.3c0-4.6 2.5-7.3 6.9-7.3 4.2 0 6.5 2.6 6.5 7.1v19.5h7.8v-20.9c0-7.7-4.2-12.3-11.3-12.3zm-37.9 0c-9.2 0-14.9 5.7-14.9 15v4.6c0 8.9 5.8 14.4 15.1 14.4 6.2 0 10.6-2.3 13.3-7l-4.8-2.8c-2 2.7-5.1 4.3-8.5 4.4-4.7 0-7.5-2.9-7.5-7.8v-1.3h21.8v-5.4c0-8.6-5.7-14.1-14.5-14.1zm7.4 14.3h-14.7v-.8c0-5.3 2.6-8.3 7.4-8.3 4.6 0 7.3 2.9 7.3 7.8zm119.3-18.9v-6.2h-27v6.2h9.5v31.6h-9.4v6.2h27v-6.2h-9.5v-31.6zm-204.6-7.1c-12.1 0-19.5 7.5-19.5 19.6v6.5c0 12.1 7.5 19.6 19.5 19.6s19.5-7.5 19.5-19.6v-6.5c0-12.1-7.5-19.6-19.5-19.6zm11.5 26.6c0 8-4.2 12.6-11.5 12.6s-11.5-4.6-11.5-12.6v-7.4c0-8 4.2-12.6 11.5-12.6s11.5 4.6 11.5 12.6zm32.5-14.9c-4.1 0-7.6 1.7-9.5 4.5l-.8 1.3v-5.1h-7.4v43.6h7.8v-15.8l.8 1.2c1.8 2.6 5.2 4.2 9.2 4.2 6.7 0 13.5-4.4 13.5-14.2v-5.5c0-7.1-4.2-14.2-13.6-14.2zm5.8 19.3c0 5.2-3 8.5-8 8.5-4.6 0-7.8-3.4-7.8-8.3v-4.8c0-5 3.2-8.5 7.8-8.5 4.9 0 7.9 3.2 7.9 8.5v4.6zm98.9-30.1-15.8 43.9h7.9l3-9.4h18.1v.1l3 9.3h7.9l-15.7-43.9zm-2.9 28.3 7.1-22.2 7 22.2z"/><path d="m0 5.5h14.6c7.9 0 12.7 5 12.7 11.8s-4.9 11.9-12.7 11.9h-9.6v12.9h-5zm14.2 19.6c5.6 0 8.2-3.6 8.2-7.8s-2.6-7.7-8.2-7.7h-9.2v15.5z"/><path d="m32 30.8v-4.3c0-6.7 4.4-11.9 12.2-11.9s12.2 5.2 12.2 11.9v4.3c0 6.6-4.4 11.9-12.2 11.9s-12.2-5.3-12.2-11.9zm19.7.1v-4.4c0-4.7-2.6-8-7.5-8s-7.5 3.4-7.5 8v4.4c0 4.6 2.6 8 7.5 8s7.5-3.4 7.5-8z"/><path d="m60.4 15.2h4.6l5.2 20.9 6.5-20.9h4.5l6.5 20.9 5.2-20.9h4.7l-7.2 26.9h-4.6l-6.8-21.5-6.8 21.5h-4.5z"/><path d="m101.7 31v-4.2c0-7.3 4.2-12.2 11.8-12.2s11.6 5.1 11.6 11.7v4.2h-18.8v.9c0 4.2 2.2 7.7 7.4 7.7 3.8 0 6.1-2 6.9-4.7h4.3c-.9 4.9-5.5 8.3-11.2 8.3-7.1 0-12-4.4-12-11.7zm19-4v-1.1c0-4.4-2.2-7.7-7.1-7.7-5.3 0-7.2 3.5-7.2 8.1v.7z"/><path d="m132.3 15.2h4.5v5.9c1-4.1 3.9-6.1 8.6-6.1h.7v4.6h-.9c-5 0-8 3.1-8 9.4v13h-4.8v-26.8z"/><path d="m149.9 31v-4.2c0-7.3 4.2-12.2 11.9-12.2s11.6 5.1 11.6 11.7v4.2h-18.8v.9c0 4.2 2.2 7.7 7.4 7.7 3.8 0 6.1-2 6.9-4.7h4.3c-.9 4.9-5.5 8.3-11.2 8.3-7.2 0-12.1-4.4-12.1-11.7zm19-4v-1.1c0-4.4-2.2-7.7-7.1-7.7-5.3 0-7.2 3.5-7.2 8.1v.7z"/><path d="m179.3 30.7v-4.2c0-6.8 4.2-12 11.1-12 4 0 7 1.8 8.6 4.3v-14.9h4.9v38.1h-4.6v-3.9c-1.2 2.3-4.5 4.5-8.8 4.5-7.1.1-11.2-5.2-11.2-11.9zm19.8-.4v-3.6c0-5.1-3.4-8.2-7.6-8.2-4.8 0-7.4 3.6-7.4 8.2v3.8c0 4.5 2.2 8.2 7.4 8.2 4.8.1 7.5-3.6 7.6-8.4z"/><path d="m228.6 38.2v3.9h-4.6v-38.2h4.9v15c1.6-2.6 4.6-4.3 8.6-4.3 6.9 0 11.1 5.1 11.1 12v4.2c0 6.6-4.1 12-11.2 12-4.3-.1-7.6-2.2-8.8-4.6zm15.2-7.7v-3.8c0-4.6-2.6-8.2-7.4-8.2-4.1 0-7.6 3.1-7.6 8.2v3.6c0 4.8 2.7 8.5 7.5 8.5 5.3 0 7.5-3.7 7.5-8.3z"/><path d="m262.3 42-9.8-26.8h4.8l7.5 21.8 7.2-21.8h4.8l-9.6 26.8-3.3 9.1h-4.8z"/></svg>